{
    "accessors": [
        {
            "bufferView": 0,
            "componentType": 5126,
            "count": 4,
            "max": [
                0.11136525124311447,
                -0.08228573948144913,
                -0.058187536895275116
            ],
            "min": [
                0.11088188737630844,
                -0.08284953981637955,
                -0.05844668298959732
            ],
            "name": "mesh0_coord_accessor",
            "type": "VEC3"
        },
        {
            "bufferView": 1,
            "componentType": 5126,
            "count": 4,
            "max": [
                0.7502456307411194,
                -0.6296753287315369,
                -0.20159487426280975
            ],
            "min": [
                0.7502456307411194,
                -0.6296753287315369,
                -0.20159487426280975
            ],
            "name": "mesh0_norm_accessor",
            "type": "VEC3"
        },
        {
            "bufferView": 2,
            "componentType": 5126,
            "count": 4,
            "max": [
                1.0,
                1.0
            ],
            "min": [
                0.0,
                0.0
            ],
            "name": "mesh0_texcoord_accessor",
            "type": "VEC2"
        },
        {
            "bufferView": 3,
            "componentType": 5125,
            "count": 6,
            "max": [
                3
            ],
            "min": [
                0
            ],
            "name": "mesh0_idx_accessor",
            "type": "SCALAR"
        },
        {
            "bufferView": 4,
            "componentType": 5126,
            "count": 4,
            "max": [
                0.11136525124311447,
                -0.08096474409103394,
                -0.05693603307008743
            ],
            "min": [
                0.1062077134847641,
                -0.08231794834136963,
                -0.05844668298959732
            ],
            "name": "mesh1_coord_accessor",
            "type": "VEC3"
        },
        {
            "bufferView": 5,
            "componentType": 5126,
            "count": 4,
            "max": [
                0.2678332030773163,
                0.9600354433059692,
                0.08122370392084122
            ],
            "min": [
                0.2678332030773163,
                0.9600354433059692,
                0.08122370392084122
            ],
            "name": "mesh1_norm_accessor",
            "type": "VEC3"
        },
        {
            "bufferView": 6,
            "componentType": 5126,
            "count": 4,
            "max": [
                1.0,
                1.0
            ],
            "min": [
                0.0,
                0.0
            ],
            "name": "mesh1_texcoord_accessor",
            "type": "VEC2"
        },
        {
            "bufferView": 7,
            "componentType": 5125,
            "count": 6,
            "max": [
                3
            ],
            "min": [
                0
            ],
            "name": "mesh1_idx_accessor",
            "type": "SCALAR"
        },
        {
            "bufferView": 8,
            "componentType": 5126,
            "count": 4,
            "max": [
                0.1081681177020073,
                -0.07866283506155014,
                -0.05693603307008743
            ],
            "min": [
                0.1062077134847641,
                -0.08099695295095444,
                -0.05722781643271446
            ],
            "name": "mesh2_coord_accessor",
            "type": "VEC3"
        },
        {
            "bufferView": 9,
            "componentType": 5126,
            "count": 4,
            "max": [
                0.7502456307411194,
                -0.6296753287315369,
                -0.20159487426280975
            ],
            "min": [
                0.7502456307411194,
                -0.6296753287315369,
                -0.20159487426280975
            ],
            "name": "mesh2_norm_accessor",
            "type": "VEC3"
        },
        {
            "bufferView": 10,
            "componentType": 5126,
            "count": 4,
            "max": [
                1.0,
                1.0
            ],
            "min": [
                0.0,
                0.0
            ],
            "name": "mesh2_texcoord_accessor",
            "type": "VEC2"
        },
        {
            "bufferView": 11,
            "componentType": 5125,
            "count": 6,
            "max": [
                3
            ],
            "min": [
                0
            ],
            "name": "mesh2_idx_accessor",
            "type": "SCALAR"
        },
        {
            "bufferView": 12,
            "componentType": 5126,
            "count": 4,
            "max": [
                0.1081681177020073,
                -0.07830403000116348,
                -0.05683498457074165
            ],
            "min": [
                0.107700876891613,
                -0.07869504392147064,
                -0.05722781643271446
            ],
            "name": "mesh3_coord_accessor",
            "type": "VEC3"
        },
        {
            "bufferView": 13,
            "componentType": 5126,
            "count": 4,
            "max": [
                0.6422727108001709,
                0.7664668560028076,
                -0.0037848115898668766
            ],
            "min": [
                0.6422727108001709,
                0.7664668560028076,
                -0.0037848115898668766
            ],
            "name": "mesh3_norm_accessor",
            "type": "VEC3"
        },
        {
            "bufferView": 14,
            "componentType": 5126,
            "count": 4,
            "max": [
                1.0,
                1.0
            ],
            "min": [
                0.0,
                0.0
            ],
            "name": "mesh3_texcoord_accessor",
            "type": "VEC2"
        },
        {
            "bufferView": 15,
            "componentType": 5125,
            "count": 6,
            "max": [
                3
            ],
            "min": [
                0
            ],
            "name": "mesh3_idx_accessor",
            "type": "SCALAR"
        },
        {
            "bufferView": 16,
            "componentType": 5126,
            "count": 7,
            "max": [
                0.11132534593343735,
                -0.07830403000116348,
                -0.05703398212790489
            ],
            "min": [
                0.10535584390163422,
                -0.08281733095645905,
                -0.05844668298959732
            ],
            "name": "mesh4_coord_accessor",
            "type": "VEC3"
        },
        {
            "bufferView": 17,
            "componentType": 5126,
            "count": 7,
            "max": [
                -0.1980678141117096,
                0.15254224836826324,
                -0.9682458639144897
            ],
            "min": [
                -0.2022053450345993,
                0.1470136046409607,
                -0.9682458639144897
            ],
            "name": "mesh4_norm_accessor",
            "type": "VEC3"
        },
        {
            "bufferView": 18,
            "componentType": 5126,
            "count": 7,
            "max": [
                1.0,
                1.0
            ],
            "min": [
                0.0,
                0.0
            ],
            "name": "mesh4_texcoord_accessor",
            "type": "VEC2"
        },
        {
            "bufferView": 19,
            "componentType": 5125,
            "count": 15,
            "max": [
                6
            ],
            "min": [
                0
            ],
            "name": "mesh4_idx_accessor",
            "type": "SCALAR"
        },
        {
            "bufferView": 20,
            "componentType": 5126,
            "count": 7,
            "max": [
                0.11136525124311447,
                -0.07833623886108398,
                -0.056784890592098236
            ],
            "min": [
                0.10539574176073074,
                -0.08284953981637955,
                -0.05819758027791977
            ],
            "name": "mesh5_coord_accessor",
            "type": "VEC3"
        },
        {
            "bufferView": 21,
            "componentType": 5126,
            "count": 7,
            "max": [
                0.20220249891281128,
                -0.14701752364635468,
                0.9682458639144897
            ],
            "min": [
                0.19806648790836334,
                -0.15254399180412292,
                0.9682458639144897
            ],
            "name": "mesh5_norm_accessor",
            "type": "VEC3"
        },
        {
            "bufferView": 22,
            "componentType": 5126,
            "count": 7,
            "max": [
                1.0,
                1.0
            ],
            "min": [
                0.0,
                0.0
            ],
            "name": "mesh5_texcoord_accessor",
            "type": "VEC2"
        },
        {
            "bufferView": 23,
            "componentType": 5125,
            "count": 15,
            "max": [
                6
            ],
            "min": [
                0
            ],
            "name": "mesh5_idx_accessor",
            "type": "SCALAR"
        },
        {
            "bufferView": 24,
            "componentType": 5126,
            "count": 4,
            "max": [
                0.10774078220129013,
                -0.07830403000116348,
                -0.056784890592098236
            ],
            "min": [
                0.10535584390163422,
                -0.08114633709192276,
                -0.057084087282419205
            ],
            "name": "mesh6_coord_accessor",
            "type": "VEC3"
        },
        {
            "bufferView": 25,
            "componentType": 5126,
            "count": 4,
            "max": [
                -0.7502456307411194,
                0.6296753287315369,
                0.20159487426280975
            ],
            "min": [
                -0.7502456307411194,
                0.6296753287315369,
                0.20159487426280975
            ],
            "name": "mesh6_norm_accessor",
            "type": "VEC3"
        },
        {
            "bufferView": 26,
            "componentType": 5126,
            "count": 4,
            "max": [
                1.0,
                1.0
            ],
            "min": [
                0.0,
                0.0
            ],
            "name": "mesh6_texcoord_accessor",
            "type": "VEC2"
        },
        {
            "bufferView": 27,
            "componentType": 5125,
            "count": 6,
            "max": [
                3
            ],
            "min": [
                0
            ],
            "name": "mesh6_idx_accessor",
            "type": "SCALAR"
        },
        {
            "bufferView": 28,
            "componentType": 5126,
            "count": 4,
            "max": [
                0.105767622590065,
                -0.08111413568258286,
                -0.056784890592098236
            ],
            "min": [
                0.10535584390163422,
                -0.08145858347415924,
                -0.05715924873948097
            ],
            "name": "mesh7_coord_accessor",
            "type": "VEC3"
        },
        {
            "bufferView": 29,
            "componentType": 5126,
            "count": 4,
            "max": [
                -0.6422727108001709,
                -0.7664668560028076,
                0.0037848115898668766
            ],
            "min": [
                -0.6422727108001709,
                -0.7664668560028076,
                0.0037848115898668766
            ],
            "name": "mesh7_norm_accessor",
            "type": "VEC3"
        },
        {
            "bufferView": 30,
            "componentType": 5126,
            "count": 4,
            "max": [
                1.0,
                1.0
            ],
            "min": [
                0.0,
                0.0
            ],
            "name": "mesh7_texcoord_accessor",
            "type": "VEC2"
        },
        {
            "bufferView": 31,
            "componentType": 5125,
            "count": 6,
            "max": [
                3
            ],
            "min": [
                0
            ],
            "name": "mesh7_idx_accessor",
            "type": "SCALAR"
        },
        {
            "bufferView": 32,
            "componentType": 5126,
            "count": 4,
            "max": [
                0.11092179268598557,
                -0.08142637461423874,
                -0.05691015347838402
            ],
            "min": [
                0.10572772473096848,
                -0.08284953981637955,
                -0.05843663588166237
            ],
            "name": "mesh8_coord_accessor",
            "type": "VEC3"
        },
        {
            "bufferView": 33,
            "componentType": 5126,
            "count": 4,
            "max": [
                -0.27798932790756226,
                -0.957309901714325,
                -0.07924440503120422
            ],
            "min": [
                -0.27798932790756226,
                -0.957309901714325,
                -0.07924440503120422
            ],
            "name": "mesh8_norm_accessor",
            "type": "VEC3"
        },
        {
            "bufferView": 34,
            "componentType": 5126,
            "count": 4,
            "max": [
                1.0,
                1.0
            ],
            "min": [
                0.0,
                0.0
            ],
            "name": "mesh8_texcoord_accessor",
            "type": "VEC2"
        },
        {
            "bufferView": 35,
            "componentType": 5125,
            "count": 6,
            "max": [
                3
            ],
            "min": [
                0
            ],
            "name": "mesh8_idx_accessor",
            "type": "SCALAR"
        }
    ],
    "asset": {
        "version": "2.0"
    },
    "bufferViews": [
        {
            "buffer": 0,
            "byteLength": 48,
            "name": "mesh0_coord_bufferView",
            "target": 34962
        },
        {
            "buffer": 0,
            "byteLength": 48,
            "byteOffset": 48,
            "name": "mesh0_norm_bufferView",
            "target": 34962
        },
        {
            "buffer": 0,
            "byteLength": 32,
            "byteOffset": 96,
            "name": "mesh0_texcoord_bufferView",
            "target": 34962
        },
        {
            "buffer": 0,
            "byteLength": 24,
            "byteOffset": 128,
            "name": "mesh0_idx_bufferView",
            "target": 34963
        },
        {
            "buffer": 0,
            "byteLength": 48,
            "byteOffset": 152,
            "name": "mesh1_coord_bufferView",
            "target": 34962
        },
        {
            "buffer": 0,
            "byteLength": 48,
            "byteOffset": 200,
            "name": "mesh1_norm_bufferView",
            "target": 34962
        },
        {
            "buffer": 0,
            "byteLength": 32,
            "byteOffset": 248,
            "name": "mesh1_texcoord_bufferView",
            "target": 34962
        },
        {
            "buffer": 0,
            "byteLength": 24,
            "byteOffset": 280,
            "name": "mesh1_idx_bufferView",
            "target": 34963
        },
        {
            "buffer": 0,
            "byteLength": 48,
            "byteOffset": 304,
            "name": "mesh2_coord_bufferView",
            "target": 34962
        },
        {
            "buffer": 0,
            "byteLength": 48,
            "byteOffset": 352,
            "name": "mesh2_norm_bufferView",
            "target": 34962
        },
        {
            "buffer": 0,
            "byteLength": 32,
            "byteOffset": 400,
            "name": "mesh2_texcoord_bufferView",
            "target": 34962
        },
        {
            "buffer": 0,
            "byteLength": 24,
            "byteOffset": 432,
            "name": "mesh2_idx_bufferView",
            "target": 34963
        },
        {
            "buffer": 0,
            "byteLength": 48,
            "byteOffset": 456,
            "name": "mesh3_coord_bufferView",
            "target": 34962
        },
        {
            "buffer": 0,
            "byteLength": 48,
            "byteOffset": 504,
            "name": "mesh3_norm_bufferView",
            "target": 34962
        },
        {
            "buffer": 0,
            "byteLength": 32,
            "byteOffset": 552,
            "name": "mesh3_texcoord_bufferView",
            "target": 34962
        },
        {
            "buffer": 0,
            "byteLength": 24,
            "byteOffset": 584,
            "name": "mesh3_idx_bufferView",
            "target": 34963
        },
        {
            "buffer": 0,
            "byteLength": 84,
            "byteOffset": 608,
            "name": "mesh4_coord_bufferView",
            "target": 34962
        },
        {
            "buffer": 0,
            "byteLength": 84,
            "byteOffset": 692,
            "name": "mesh4_norm_bufferView",
            "target": 34962
        },
        {
            "buffer": 0,
            "byteLength": 56,
            "byteOffset": 776,
            "name": "mesh4_texcoord_bufferView",
            "target": 34962
        },
        {
            "buffer": 0,
            "byteLength": 60,
            "byteOffset": 832,
            "name": "mesh4_idx_bufferView",
            "target": 34963
        },
        {
            "buffer": 0,
            "byteLength": 84,
            "byteOffset": 892,
            "name": "mesh5_coord_bufferView",
            "target": 34962
        },
        {
            "buffer": 0,
            "byteLength": 84,
            "byteOffset": 976,
            "name": "mesh5_norm_bufferView",
            "target": 34962
        },
        {
            "buffer": 0,
            "byteLength": 56,
            "byteOffset": 1060,
            "name": "mesh5_texcoord_bufferView",
            "target": 34962
        },
        {
            "buffer": 0,
            "byteLength": 60,
            "byteOffset": 1116,
            "name": "mesh5_idx_bufferView",
            "target": 34963
        },
        {
            "buffer": 0,
            "byteLength": 48,
            "byteOffset": 1176,
            "name": "mesh6_coord_bufferView",
            "target": 34962
        },
        {
            "buffer": 0,
            "byteLength": 48,
            "byteOffset": 1224,
            "name": "mesh6_norm_bufferView",
            "target": 34962
        },
        {
            "buffer": 0,
            "byteLength": 32,
            "byteOffset": 1272,
            "name": "mesh6_texcoord_bufferView",
            "target": 34962
        },
        {
            "buffer": 0,
            "byteLength": 24,
            "byteOffset": 1304,
            "name": "mesh6_idx_bufferView",
            "target": 34963
        },
        {
            "buffer": 0,
            "byteLength": 48,
            "byteOffset": 1328,
            "name": "mesh7_coord_bufferView",
            "target": 34962
        },
        {
            "buffer": 0,
            "byteLength": 48,
            "byteOffset": 1376,
            "name": "mesh7_norm_bufferView",
            "target": 34962
        },
        {
            "buffer": 0,
            "byteLength": 32,
            "byteOffset": 1424,
            "name": "mesh7_texcoord_bufferView",
            "target": 34962
        },
        {
            "buffer": 0,
            "byteLength": 24,
            "byteOffset": 1456,
            "name": "mesh7_idx_bufferView",
            "target": 34963
        },
        {
            "buffer": 0,
            "byteLength": 48,
            "byteOffset": 1480,
            "name": "mesh8_coord_bufferView",
            "target": 34962
        },
        {
            "buffer": 0,
            "byteLength": 48,
            "byteOffset": 1528,
            "name": "mesh8_norm_bufferView",
            "target": 34962
        },
        {
            "buffer": 0,
            "byteLength": 32,
            "byteOffset": 1576,
            "name": "mesh8_texcoord_bufferView",
            "target": 34962
        },
        {
            "buffer": 0,
            "byteLength": 24,
            "byteOffset": 1608,
            "name": "mesh8_idx_bufferView",
            "target": 34963
        }
    ],
    "buffers": [
        {
            "byteLength": 1632,
            "name": "Total_buffer",
            "uri": "data:application/octet-stream;base64,"
        }
    ],
    "extensionsUsed": [
        "PTC_onshape_metadata"
    ],
    "materials": [
        {
            "doubleSided": true,
            "name": "0.231373_0.380392_0.705882_0.000000_0.000000",
            "pbrMetallicRoughness": {
                "baseColorFactor": [
                    0.23137255012989044,
                    0.3803921639919281,
                    0.7058823704719543,
                    1.0
                ],
                "metallicFactor": 0.0
            }
        }
    ],
    "meshes": [
        {
            "name": "mesh0_mesh",
            "primitives": [
                {
                    "attributes": {
                        "NORMAL": 1,
                        "POSITION": 0,
                        "TEXCOORD_0": 2
                    },
                    "indices": 3,
                    "material": 0
                },
                {
                    "attributes": {
                        "NORMAL": 5,
                        "POSITION": 4,
                        "TEXCOORD_0": 6
                    },
                    "indices": 7,
                    "material": 0
                },
                {
                    "attributes": {
                        "NORMAL": 9,
                        "POSITION": 8,
                        "TEXCOORD_0": 10
                    },
                    "indices": 11,
                    "material": 0
                },
                {
                    "attributes": {
                        "NORMAL": 13,
                        "POSITION": 12,
                        "TEXCOORD_0": 14
                    },
                    "indices": 15,
                    "material": 0
                },
                {
                    "attributes": {
                        "NORMAL": 17,
                        "POSITION": 16,
                        "TEXCOORD_0": 18
                    },
                    "indices": 19,
                    "material": 0
                },
                {
                    "attributes": {
                        "NORMAL": 21,
                        "POSITION": 20,
                        "TEXCOORD_0": 22
                    },
                    "indices": 23,
                    "material": 0
                },
                {
                    "attributes": {
                        "NORMAL": 25,
                        "POSITION": 24,
                        "TEXCOORD_0": 26
                    },
                    "indices": 27,
                    "material": 0
                },
                {
                    "attributes": {
                        "NORMAL": 29,
                        "POSITION": 28,
                        "TEXCOORD_0": 30
                    },
                    "indices": 31,
                    "material": 0
                },
                {
                    "attributes": {
                        "NORMAL": 33,
                        "POSITION": 32,
                        "TEXCOORD_0": 34
                    },
                    "indices": 35,
                    "material": 0
                }
            ]
        }
    ],
    "nodes": [
        {
            "extensions": {
                "PTC_onshape_metadata": {
                    "entity_type": "Body",
                    "id": [
                        "RIL/"
                    ]
                }
            },
            "mesh": 0,
            "name": "Part 439"
        }
    ],
    "scene": 0,
    "scenes": [
        {
            "name": "Root",
            "nodes": [
                0
            ]
        }
    ]
}