{
    "accessors": [
        {
            "bufferView": 0,
            "componentType": 5126,
            "count": 10,
            "max": [
                0.018140463158488274,
                0.07579357922077179,
                0.00870264321565628
            ],
            "min": [
                0.007638516835868359,
                0.07275574654340744,
                -0.013847573660314083
            ],
            "name": "mesh0_coord_accessor",
            "type": "VEC3"
        },
        {
            "bufferView": 1,
            "componentType": 5126,
            "count": 10,
            "max": [
                -0.8937621712684631,
                0.15759438276290894,
                0.41994425654411316
            ],
            "min": [
                -0.8937621712684631,
                0.15759438276290894,
                0.41994425654411316
            ],
            "name": "mesh0_norm_accessor",
            "type": "VEC3"
        },
        {
            "bufferView": 2,
            "componentType": 5126,
            "count": 10,
            "max": [
                1.0,
                1.0
            ],
            "min": [
                0.0,
                0.0
            ],
            "name": "mesh0_texcoord_accessor",
            "type": "VEC2"
        },
        {
            "bufferView": 3,
            "componentType": 5125,
            "count": 24,
            "max": [
                9
            ],
            "min": [
                0
            ],
            "name": "mesh0_idx_accessor",
            "type": "SCALAR"
        },
        {
            "bufferView": 4,
            "componentType": 5126,
            "count": 6,
            "max": [
                0.011008706875145435,
                0.07579357922077179,
                -0.013847573660314083
            ],
            "min": [
                0.007638516835868359,
                0.07414932548999786,
                -0.013847573660314083
            ],
            "name": "mesh1_coord_accessor",
            "type": "VEC3"
        },
        {
            "bufferView": 5,
            "componentType": 5126,
            "count": 6,
            "max": [
                9.07308988102029e-33,
                5.145604857059253e-32,
                -1.0
            ],
            "min": [
                9.07308988102029e-33,
                5.145604857059253e-32,
                -1.0
            ],
            "name": "mesh1_norm_accessor",
            "type": "VEC3"
        },
        {
            "bufferView": 6,
            "componentType": 5126,
            "count": 6,
            "max": [
                1.0,
                1.0
            ],
            "min": [
                0.0,
                0.0
            ],
            "name": "mesh1_texcoord_accessor",
            "type": "VEC2"
        },
        {
            "bufferView": 7,
            "componentType": 5125,
            "count": 12,
            "max": [
                5
            ],
            "min": [
                0
            ],
            "name": "mesh1_idx_accessor",
            "type": "SCALAR"
        },
        {
            "bufferView": 8,
            "componentType": 5126,
            "count": 8,
            "max": [
                0.021080804988741875,
                0.07540058344602585,
                0.009044396691024303
            ],
            "min": [
                0.010788075625896454,
                0.07196809351444244,
                -0.013847573660314083
            ],
            "name": "mesh2_coord_accessor",
            "type": "VEC3"
        },
        {
            "bufferView": 9,
            "componentType": 5126,
            "count": 8,
            "max": [
                0.8981361389160156,
                -0.1583656370639801,
                -0.41020944714546204
            ],
            "min": [
                0.8981361389160156,
                -0.1583656370639801,
                -0.41020944714546204
            ],
            "name": "mesh2_norm_accessor",
            "type": "VEC3"
        },
        {
            "bufferView": 10,
            "componentType": 5126,
            "count": 8,
            "max": [
                1.0,
                1.0
            ],
            "min": [
                0.0,
                0.0
            ],
            "name": "mesh2_texcoord_accessor",
            "type": "VEC2"
        },
        {
            "bufferView": 11,
            "componentType": 5125,
            "count": 18,
            "max": [
                7
            ],
            "min": [
                0
            ],
            "name": "mesh2_idx_accessor",
            "type": "SCALAR"
        },
        {
            "bufferView": 12,
            "componentType": 5126,
            "count": 4,
            "max": [
                0.021080804988741875,
                0.0732259526848793,
                0.011337452568113804
            ],
            "min": [
                0.0208590105175972,
                0.07196809351444244,
                0.009044396691024303
            ],
            "name": "mesh3_coord_accessor",
            "type": "VEC3"
        },
        {
            "bufferView": 13,
            "componentType": 5126,
            "count": 4,
            "max": [
                0.9848077297210693,
                -0.1736481785774231,
                -0.0
            ],
            "min": [
                0.9848077297210693,
                -0.1736481785774231,
                -0.0
            ],
            "name": "mesh3_norm_accessor",
            "type": "VEC3"
        },
        {
            "bufferView": 14,
            "componentType": 5126,
            "count": 4,
            "max": [
                1.0,
                1.0
            ],
            "min": [
                0.0,
                0.0
            ],
            "name": "mesh3_texcoord_accessor",
            "type": "VEC2"
        },
        {
            "bufferView": 15,
            "componentType": 5125,
            "count": 6,
            "max": [
                3
            ],
            "min": [
                0
            ],
            "name": "mesh3_idx_accessor",
            "type": "SCALAR"
        },
        {
            "bufferView": 16,
            "componentType": 5126,
            "count": 18,
            "max": [
                0.0208590105175972,
                0.07480400055646896,
                0.011337452568113804
            ],
            "min": [
                0.0043436093255877495,
                0.07196809351444244,
                -0.013847573660314083
            ],
            "name": "mesh4_coord_accessor",
            "type": "VEC3"
        },
        {
            "bufferView": 17,
            "componentType": 5126,
            "count": 18,
            "max": [
                -0.05796889588236809,
                -0.9604710340499878,
                -0.0
            ],
            "min": [
                -0.27837997674942017,
                -0.9983183741569519,
                -0.0
            ],
            "name": "mesh4_norm_accessor",
            "type": "VEC3"
        },
        {
            "bufferView": 18,
            "componentType": 5126,
            "count": 18,
            "max": [
                1.0,
                1.0
            ],
            "min": [
                0.0,
                0.0
            ],
            "name": "mesh4_texcoord_accessor",
            "type": "VEC2"
        },
        {
            "bufferView": 19,
            "componentType": 5125,
            "count": 48,
            "max": [
                17
            ],
            "min": [
                0
            ],
            "name": "mesh4_idx_accessor",
            "type": "SCALAR"
        },
        {
            "bufferView": 20,
            "componentType": 5126,
            "count": 18,
            "max": [
                0.021080804988741875,
                0.07606309652328491,
                0.011337452568113804
            ],
            "min": [
                0.004565623123198748,
                0.0732259526848793,
                -0.013847573660314083
            ],
            "name": "mesh5_coord_accessor",
            "type": "VEC3"
        },
        {
            "bufferView": 21,
            "componentType": 5126,
            "count": 18,
            "max": [
                0.27665096521377563,
                0.9982033967971802,
                0.0
            ],
            "min": [
                0.059916313737630844,
                0.9609704613685608,
                0.0
            ],
            "name": "mesh5_norm_accessor",
            "type": "VEC3"
        },
        {
            "bufferView": 22,
            "componentType": 5126,
            "count": 18,
            "max": [
                1.0,
                1.0
            ],
            "min": [
                0.0,
                0.0
            ],
            "name": "mesh5_texcoord_accessor",
            "type": "VEC2"
        },
        {
            "bufferView": 23,
            "componentType": 5125,
            "count": 48,
            "max": [
                17
            ],
            "min": [
                0
            ],
            "name": "mesh5_idx_accessor",
            "type": "SCALAR"
        },
        {
            "bufferView": 24,
            "componentType": 5126,
            "count": 8,
            "max": [
                0.021080804988741875,
                0.07606309652328491,
                0.011337452568113804
            ],
            "min": [
                0.0043436093255877495,
                0.07196809351444244,
                0.011337452568113804
            ],
            "name": "mesh6_coord_accessor",
            "type": "VEC3"
        },
        {
            "bufferView": 25,
            "componentType": 5126,
            "count": 8,
            "max": [
                -9.07308988102029e-33,
                -5.145604857059253e-32,
                1.0
            ],
            "min": [
                -9.07308988102029e-33,
                -5.145604857059253e-32,
                1.0
            ],
            "name": "mesh6_norm_accessor",
            "type": "VEC3"
        },
        {
            "bufferView": 26,
            "componentType": 5126,
            "count": 8,
            "max": [
                1.0,
                1.0
            ],
            "min": [
                0.0,
                0.0
            ],
            "name": "mesh6_texcoord_accessor",
            "type": "VEC2"
        },
        {
            "bufferView": 27,
            "componentType": 5125,
            "count": 18,
            "max": [
                7
            ],
            "min": [
                0
            ],
            "name": "mesh6_idx_accessor",
            "type": "SCALAR"
        },
        {
            "bufferView": 28,
            "componentType": 5126,
            "count": 4,
            "max": [
                0.004565623123198748,
                0.07606309652328491,
                0.011337452568113804
            ],
            "min": [
                0.0043436093255877495,
                0.07480400055646896,
                0.00870264321565628
            ],
            "name": "mesh7_coord_accessor",
            "type": "VEC3"
        },
        {
            "bufferView": 29,
            "componentType": 5126,
            "count": 4,
            "max": [
                -0.9848077297210693,
                0.1736481785774231,
                0.0
            ],
            "min": [
                -0.9848077297210693,
                0.1736481785774231,
                0.0
            ],
            "name": "mesh7_norm_accessor",
            "type": "VEC3"
        },
        {
            "bufferView": 30,
            "componentType": 5126,
            "count": 4,
            "max": [
                1.0,
                1.0
            ],
            "min": [
                0.0,
                0.0
            ],
            "name": "mesh7_texcoord_accessor",
            "type": "VEC2"
        },
        {
            "bufferView": 31,
            "componentType": 5125,
            "count": 6,
            "max": [
                3
            ],
            "min": [
                0
            ],
            "name": "mesh7_idx_accessor",
            "type": "SCALAR"
        },
        {
            "bufferView": 32,
            "componentType": 5126,
            "count": 10,
            "max": [
                0.018140463158488274,
                0.07606309652328491,
                0.00870264321565628
            ],
            "min": [
                0.0043436093255877495,
                0.07275574654340744,
                0.00870264321565628
            ],
            "name": "mesh8_coord_accessor",
            "type": "VEC3"
        },
        {
            "bufferView": 33,
            "componentType": 5126,
            "count": 10,
            "max": [
                9.07308988102029e-33,
                5.145604857059253e-32,
                -1.0
            ],
            "min": [
                9.07308988102029e-33,
                5.145604857059253e-32,
                -1.0
            ],
            "name": "mesh8_norm_accessor",
            "type": "VEC3"
        },
        {
            "bufferView": 34,
            "componentType": 5126,
            "count": 10,
            "max": [
                1.0,
                1.0
            ],
            "min": [
                0.0,
                0.0
            ],
            "name": "mesh8_texcoord_accessor",
            "type": "VEC2"
        },
        {
            "bufferView": 35,
            "componentType": 5125,
            "count": 24,
            "max": [
                9
            ],
            "min": [
                0
            ],
            "name": "mesh8_idx_accessor",
            "type": "SCALAR"
        }
    ],
    "asset": {
        "version": "2.0"
    },
    "bufferViews": [
        {
            "buffer": 0,
            "byteLength": 120,
            "name": "mesh0_coord_bufferView",
            "target": 34962
        },
        {
            "buffer": 0,
            "byteLength": 120,
            "byteOffset": 120,
            "name": "mesh0_norm_bufferView",
            "target": 34962
        },
        {
            "buffer": 0,
            "byteLength": 80,
            "byteOffset": 240,
            "name": "mesh0_texcoord_bufferView",
            "target": 34962
        },
        {
            "buffer": 0,
            "byteLength": 96,
            "byteOffset": 320,
            "name": "mesh0_idx_bufferView",
            "target": 34963
        },
        {
            "buffer": 0,
            "byteLength": 72,
            "byteOffset": 416,
            "name": "mesh1_coord_bufferView",
            "target": 34962
        },
        {
            "buffer": 0,
            "byteLength": 72,
            "byteOffset": 488,
            "name": "mesh1_norm_bufferView",
            "target": 34962
        },
        {
            "buffer": 0,
            "byteLength": 48,
            "byteOffset": 560,
            "name": "mesh1_texcoord_bufferView",
            "target": 34962
        },
        {
            "buffer": 0,
            "byteLength": 48,
            "byteOffset": 608,
            "name": "mesh1_idx_bufferView",
            "target": 34963
        },
        {
            "buffer": 0,
            "byteLength": 96,
            "byteOffset": 656,
            "name": "mesh2_coord_bufferView",
            "target": 34962
        },
        {
            "buffer": 0,
            "byteLength": 96,
            "byteOffset": 752,
            "name": "mesh2_norm_bufferView",
            "target": 34962
        },
        {
            "buffer": 0,
            "byteLength": 64,
            "byteOffset": 848,
            "name": "mesh2_texcoord_bufferView",
            "target": 34962
        },
        {
            "buffer": 0,
            "byteLength": 72,
            "byteOffset": 912,
            "name": "mesh2_idx_bufferView",
            "target": 34963
        },
        {
            "buffer": 0,
            "byteLength": 48,
            "byteOffset": 984,
            "name": "mesh3_coord_bufferView",
            "target": 34962
        },
        {
            "buffer": 0,
            "byteLength": 48,
            "byteOffset": 1032,
            "name": "mesh3_norm_bufferView",
            "target": 34962
        },
        {
            "buffer": 0,
            "byteLength": 32,
            "byteOffset": 1080,
            "name": "mesh3_texcoord_bufferView",
            "target": 34962
        },
        {
            "buffer": 0,
            "byteLength": 24,
            "byteOffset": 1112,
            "name": "mesh3_idx_bufferView",
            "target": 34963
        },
        {
            "buffer": 0,
            "byteLength": 216,
            "byteOffset": 1136,
            "name": "mesh4_coord_bufferView",
            "target": 34962
        },
        {
            "buffer": 0,
            "byteLength": 216,
            "byteOffset": 1352,
            "name": "mesh4_norm_bufferView",
            "target": 34962
        },
        {
            "buffer": 0,
            "byteLength": 144,
            "byteOffset": 1568,
            "name": "mesh4_texcoord_bufferView",
            "target": 34962
        },
        {
            "buffer": 0,
            "byteLength": 192,
            "byteOffset": 1712,
            "name": "mesh4_idx_bufferView",
            "target": 34963
        },
        {
            "buffer": 0,
            "byteLength": 216,
            "byteOffset": 1904,
            "name": "mesh5_coord_bufferView",
            "target": 34962
        },
        {
            "buffer": 0,
            "byteLength": 216,
            "byteOffset": 2120,
            "name": "mesh5_norm_bufferView",
            "target": 34962
        },
        {
            "buffer": 0,
            "byteLength": 144,
            "byteOffset": 2336,
            "name": "mesh5_texcoord_bufferView",
            "target": 34962
        },
        {
            "buffer": 0,
            "byteLength": 192,
            "byteOffset": 2480,
            "name": "mesh5_idx_bufferView",
            "target": 34963
        },
        {
            "buffer": 0,
            "byteLength": 96,
            "byteOffset": 2672,
            "name": "mesh6_coord_bufferView",
            "target": 34962
        },
        {
            "buffer": 0,
            "byteLength": 96,
            "byteOffset": 2768,
            "name": "mesh6_norm_bufferView",
            "target": 34962
        },
        {
            "buffer": 0,
            "byteLength": 64,
            "byteOffset": 2864,
            "name": "mesh6_texcoord_bufferView",
            "target": 34962
        },
        {
            "buffer": 0,
            "byteLength": 72,
            "byteOffset": 2928,
            "name": "mesh6_idx_bufferView",
            "target": 34963
        },
        {
            "buffer": 0,
            "byteLength": 48,
            "byteOffset": 3000,
            "name": "mesh7_coord_bufferView",
            "target": 34962
        },
        {
            "buffer": 0,
            "byteLength": 48,
            "byteOffset": 3048,
            "name": "mesh7_norm_bufferView",
            "target": 34962
        },
        {
            "buffer": 0,
            "byteLength": 32,
            "byteOffset": 3096,
            "name": "mesh7_texcoord_bufferView",
            "target": 34962
        },
        {
            "buffer": 0,
            "byteLength": 24,
            "byteOffset": 3128,
            "name": "mesh7_idx_bufferView",
            "target": 34963
        },
        {
            "buffer": 0,
            "byteLength": 120,
            "byteOffset": 3152,
            "name": "mesh8_coord_bufferView",
            "target": 34962
        },
        {
            "buffer": 0,
            "byteLength": 120,
            "byteOffset": 3272,
            "name": "mesh8_norm_bufferView",
            "target": 34962
        },
        {
            "buffer": 0,
            "byteLength": 80,
            "byteOffset": 3392,
            "name": "mesh8_texcoord_bufferView",
            "target": 34962
        },
        {
            "buffer": 0,
            "byteLength": 96,
            "byteOffset": 3472,
            "name": "mesh8_idx_bufferView",
            "target": 34963
        }
    ],
    "buffers": [
        {
            "byteLength": 3568,
            "name": "Total_buffer",
            "uri": "data:application/octet-stream;base64,"
        }
    ],
    "extensionsUsed": [
        "PTC_onshape_metadata"
    ],
    "materials": [
        {
            "doubleSided": true,
            "name": "0.980392_0.713725_0.003922_0.000000_0.000000",
            "pbrMetallicRoughness": {
                "baseColorFactor": [
                    0.9803921580314636,
                    0.7137255072593689,
                    0.003921568859368563,
                    1.0
                ],
                "metallicFactor": 0.0
            }
        }
    ],
    "meshes": [
        {
            "name": "mesh0_mesh",
            "primitives": [
                {
                    "attributes": {
                        "NORMAL": 1,
                        "POSITION": 0,
                        "TEXCOORD_0": 2
                    },
                    "indices": 3,
                    "material": 0
                },
                {
                    "attributes": {
                        "NORMAL": 5,
                        "POSITION": 4,
                        "TEXCOORD_0": 6
                    },
                    "indices": 7,
                    "material": 0
                },
                {
                    "attributes": {
                        "NORMAL": 9,
                        "POSITION": 8,
                        "TEXCOORD_0": 10
                    },
                    "indices": 11,
                    "material": 0
                },
                {
                    "attributes": {
                        "NORMAL": 13,
                        "POSITION": 12,
                        "TEXCOORD_0": 14
                    },
                    "indices": 15,
                    "material": 0
                },
                {
                    "attributes": {
                        "NORMAL": 17,
                        "POSITION": 16,
                        "TEXCOORD_0": 18
                    },
                    "indices": 19,
                    "material": 0
                },
                {
                    "attributes": {
                        "NORMAL": 21,
                        "POSITION": 20,
                        "TEXCOORD_0": 22
                    },
                    "indices": 23,
                    "material": 0
                },
                {
                    "attributes": {
                        "NORMAL": 25,
                        "POSITION": 24,
                        "TEXCOORD_0": 26
                    },
                    "indices": 27,
                    "material": 0
                },
                {
                    "attributes": {
                        "NORMAL": 29,
                        "POSITION": 28,
                        "TEXCOORD_0": 30
                    },
                    "indices": 31,
                    "material": 0
                },
                {
                    "attributes": {
                        "NORMAL": 33,
                        "POSITION": 32,
                        "TEXCOORD_0": 34
                    },
                    "indices": 35,
                    "material": 0
                }
            ]
        }
    ],
    "nodes": [
        {
            "extensions": {
                "PTC_onshape_metadata": {
                    "entity_type": "Body",
                    "id": [
                        "R8KX"
                    ]
                }
            },
            "mesh": 0,
            "name": "Sub_6_Cell_1_3_Number_7"
        }
    ],
    "scene": 0,
    "scenes": [
        {
            "name": "Root",
            "nodes": [
                0
            ]
        }
    ]
}